#!OML:ASF X:\für Bonn\!DataBase\2005_08_10_Bjorn_Final\c3d\bjorn.ASF
:FULLY-SPECIFIED
:DEGREES
131
root 0.821248 16.7295 3.42497 -175.624 -0.399122 -179.139
lowerback 9.61236 1.33258 4.74696
upperback 7.77773 1.17519 -1.09722
thorax 2.89065 0.433388 -3.90567
lowerneck -21.6305 -3.42421 1.44092
upperneck 9.93741 -5.36661 1.88584
head 6.52911 -2.39047 -0.240786
rclavicle 1.26974e-014 -7.90169e-015
rhumerus 74.8546 -6.22601 -66.152
rradius 14.1077
rwrist 36.4505
rhand -11.4972 11.1471
rfingers 7.12502
rthumb 14.5415 -18.3232
lclavicle 1.26974e-014 -7.90169e-015
lhumerus 82.3443 -6.23401 62.1791
lradius 12.2754
lwrist -37.0143
lhand -19.5826 -9.75633
lfingers 7.12502
lthumb 6.74276 20.1163
rfemur -41.116 -8.85337 17.0604
rtibia 74.6368
rfoot -29.33 13.3578
rtoes -23.312
lfemur -42.1733 3.30295 -19.1405
ltibia 77.9083
lfoot -25.6917 -4.87013
ltoes -26.059
132
root 0.820662 16.9459 3.38381 -175.348 -0.352 -179.164
lowerback 8.82525 1.34302 4.69881
upperback 7.61195 1.21466 -1.11252
thorax 3.14696 0.480367 -3.88356
lowerneck -21.4212 -3.47521 1.36585
upperneck 10.5698 -5.40474 1.85848
head 6.70375 -2.39471 -0.245895
rclavicle 1.59525e-014 -8.89561e-015
rhumerus 74.6163 -6.01481 -66.239
rradius 14.1147
rwrist 36.1534
rhand -11.5305 11.0671
rfingers 7.12502
rthumb 14.5094 -18.4055
lclavicle 1.59525e-014 -8.89561e-015
lhumerus 81.9217 -6.47156 62.4547
lradius 12.1933
lwrist -37.1109
lhand -19.383 -9.83109
lfingers 7.12502
lthumb 6.93549 20.0353
rfemur -39.7657 -8.75418 17.1407
rtibia 71.9316
rfoot -28.7588 13.054
rtoes -22.7869
lfemur -40.735 3.24282 -19.1859
ltibia 75.0887
lfoot -25.2999 -4.68024
ltoes -25.7936
133
root 0.819832 17.1558 3.34444 -175.032 -0.314283 -179.208
lowerback 8.02395 1.33494 4.61182
upperback 7.41625 1.23144 -1.11764
thorax 3.3772 0.514079 -3.82699
lowerneck -21.094 -3.49488 1.31435
upperneck 11.0923 -5.39866 1.7804
head 6.82123 -2.38702 -0.262687
rclavicle 1.17531e-014 1.10822e-014
rhumerus 74.4245 -5.80935 -66.7689
rradius 14.1115
rwrist 36.277
rhand -11.4636 11.0729
rfingers 7.12502
rthumb 14.5738 -18.3952
lclavicle 1.17531e-014 1.10822e-014
lhumerus 81.4765 -6.68717 62.5193
lradius 12.0812
lwrist -36.9812
lhand -19.268 -9.85345
lfingers 7.12502
lthumb 7.04648 20.0093
rfemur -38.5072 -8.69219 17.1946
rtibia 69.272
rfoot -28.1647 12.801
rtoes -22.1234
lfemur -39.3578 3.18369 -19.2566
ltibia 72.2478
lfoot -24.8633 -4.55667
ltoes -25.3221
134
root 0.820132 17.3575 3.3056 -174.714 -0.275504 -179.252
lowerback 7.20899 1.338 4.52852
upperback 7.2326 1.25987 -1.13484
thorax 3.63195 0.553153 -3.78512
lowerneck -20.7368 -3.51784 1.29584
upperneck 11.5615 -5.40824 1.69761
head 6.91518 -2.38951 -0.287002
rclavicle -4.77083e-015 1.31695e-014
rhumerus 74.1968 -5.61206 -67.1141
rradius 14.118
rwrist 36.2602
rhand -11.3517 11.063
rfingers 7.12502
rthumb 14.6816 -18.3972
lclavicle -4.77083e-015 1.31695e-014
lhumerus 81.0053 -6.92817 62.7485
lradius 11.9883
lwrist -37.0639
lhand -19.3411 -9.89866
lfingers 7.12502
lthumb 6.97593 19.9664
rfemur -37.2845 -8.6522 17.2483
rtibia 66.6545
rfoot -27.5142 12.5649
rtoes -21.4597
lfemur -38.008 3.15316 -19.3301
ltibia 69.4143
lfoot -24.3977 -4.39112
ltoes -24.949
135
root 0.820408 17.5479 3.26943 -174.427 -0.227108 -179.296
lowerback 6.45333 1.33514 4.43023
upperback 7.0337 1.28149 -1.13629
thorax 3.83797 0.585194 -3.71881
lowerneck -20.2463 -3.53207 1.21596
upperneck 11.9505 -5.39466 1.65455
head 6.96359 -2.38457 -0.282696
rclavicle -1.45113e-014 5.76476e-015
rhumerus 73.8495 -5.30485 -67.11
rradius 14.1778
rwrist 35.908
rhand -11.2128 10.9725
rfingers 7.12502
rthumb 14.8155 -18.4779
lclavicle -1.45113e-014 5.76476e-015
lhumerus 80.4666 -7.16803 62.9186
lradius 11.9198
lwrist -37.069
lhand -19.5008 -9.87123
lfingers 7.12502
lthumb 6.82169 19.9989
rfemur -36.0843 -8.63916 17.2999
rtibia 64.0937
rfoot -26.8851 12.2636
rtoes -21.1866
lfemur -36.6584 3.12834 -19.3912
ltibia 66.5988
lfoot -23.8713 -4.4552
ltoes -23.8937
136
root 0.820683 17.7307 3.23402 -174.188 -0.179382 -179.32
lowerback 5.7167 1.32569 4.35078
upperback 6.88897 1.28448 -1.13523
thorax 4.0918 0.605923 -3.66031
lowerneck -19.7831 -3.53603 1.15686
upperneck 12.3 -5.37769 1.61511
head 7.00251 -2.37915 -0.28017
rclavicle -1.27471e-014 6.21202e-015
rhumerus 73.5441 -4.99573 -67.211
rradius 14.2382
rwrist 35.6684
rhand -11.0776 10.8997
rfingers 7.12502
rthumb 14.9457 -18.5411
lclavicle -1.27471e-014 6.21202e-015
lhumerus 79.9618 -7.35335 63.1453
lradius 11.8351
lwrist -37.2888
lhand -19.7198 -9.86948
lfingers 7.12502
lthumb 6.6103 20.0073
rfemur -34.8524 -8.64493 17.3571
rtibia 61.574
rfoot -26.2407 12.0427
rtoes -20.7678
lfemur -35.2729 3.13143 -19.4328
ltibia 63.8099
lfoot -23.3414 -4.43968
ltoes -23.0847
137
root 0.821768 17.9054 3.19764 -174.004 -0.137565 -179.377
lowerback 5.02275 1.31992 4.23002
upperback 6.76489 1.2882 -1.14222
thorax 4.34408 0.622925 -3.58781
lowerneck -19.3403 -3.52825 1.16075
upperneck 12.6799 -5.35635 1.51492
head 7.05065 -2.37497 -0.307647
rclavicle -3.70236e-015 -4.96962e-015
rhumerus 73.1676 -4.65186 -67.0328
rradius 14.319
rwrist 35.2089
rhand -10.8865 10.7946
rfingers 7.12502
rthumb 15.1299 -18.6324
lclavicle -3.70236e-015 -4.96962e-015
lhumerus 79.3881 -7.54108 63.4833
lradius 11.8352
lwrist -37.6542
lhand -19.9248 -9.8856
lfingers 7.12502
lthumb 6.41242 19.9973
rfemur -33.5829 -8.65647 17.3608
rtibia 59.1003
rfoot -25.5889 11.8665
rtoes -20.2262
lfemur -33.8387 3.12943 -19.5007
ltibia 61.0419
lfoot -22.8237 -4.45022
ltoes -22.3437
138
root 0.823143 18.0704 3.16156 -173.823 -0.0811041 -179.383
lowerback 4.3472 1.31333 4.15963
upperback 6.64361 1.29108 -1.13963
thorax 4.59213 0.640347 -3.53407
lowerneck -18.9481 -3.51576 1.14095
upperneck 13.0702 -5.33538 1.46213
head 7.11235 -2.36868 -0.317258
rclavicle -9.93923e-016 4.12478e-015
rhumerus 72.7829 -4.29016 -66.8424
rradius 14.3955
rwrist 34.8225
rhand -10.7026 10.6852
rfingers 7.12502
rthumb 15.307 -18.7283
lclavicle -9.93923e-016 4.12478e-015
lhumerus 78.7783 -7.69331 63.9339
lradius 11.8819
lwrist -38.2657
lhand -20.0881 -9.8764
lfingers 7.12502
lthumb 6.25473 20.0113
rfemur -32.358 -8.69078 17.4271
rtibia 56.6774
rfoot -24.8928 11.6657
rtoes -19.9094
lfemur -32.4358 3.1849 -19.5115
ltibia 58.3231
lfoot -22.2935 -4.46334
ltoes -21.8419
139
root 0.82566 18.225 3.12535 -173.658 -0.0208763 -179.422
lowerback 3.68452 0.620415 3.97714
upperback 6.51343 1.43767 -1.18881
thorax 4.80493 1.16738 -3.43448
lowerneck -18.5274 -3.48437 1.1296
upperneck 13.4505 -5.28848 1.38111
head 7.16449 -2.354 -0.333867
rclavicle 4.91992e-015 3.52843e-015
rhumerus 72.3277 -3.79801 -66.2047
rradius 14.542
rwrist 34.0855
rhand -10.4794 10.4695
rfingers 7.12502
rthumb 15.522 -18.9275
lclavicle 4.91992e-015 3.52843e-015
lhumerus 78.113 -7.79294 64.4756
lradius 11.9723
lwrist -39.0658
lhand -20.1459 -9.83465
lfingers 7.12502
lthumb 6.19892 20.0547
rfemur -31.1446 -8.73954 17.4467
rtibia 54.3119
rfoot -24.1129 11.5186
rtoes -19.634
lfemur -31.039 3.22557 -19.5498
ltibia 55.6505
lfoot -21.7567 -4.50795
ltoes -21.1082
140
root 0.827865 18.3716 3.08912 -173.496 0.0161218 -179.427
lowerback 3.02738 0.641558 3.8835
upperback 6.40727 1.40392 -1.15113
thorax 5.05836 1.13289 -3.33147
lowerneck -18.1556 -3.44994 1.12128
upperneck 13.8301 -5.2367 1.27456
head 7.22339 -2.33995 -0.359726
rclavicle -1.20513e-014 1.42131e-014
rhumerus 71.9198 -3.31009 -65.6038
rradius 14.6198
rwrist 33.4643
rhand -10.2908 10.3001
rfingers 7.12502
rthumb 15.7036 -19.0827
lclavicle -1.20513e-014 1.42131e-014
lhumerus 77.4694 -7.84097 65.0662
lradius 12.0715
lwrist -39.9212
lhand -20.0528 -9.87549
lfingers 7.12502
lthumb 6.28889 20.0112
rfemur -29.9626 -8.81739 17.5041
rtibia 52.0068
rfoot -23.3415 11.3837
rtoes -19.3369
lfemur -29.6828 3.2801 -19.5435
ltibia 53.0525
lfoot -21.2005 -4.59634
ltoes -20.3463
141
root 0.830724 18.5088 3.05346 -173.344 0.0637589 -179.415
lowerback 2.40362 0.653649 3.79436
upperback 6.28971 1.36101 -1.1129
thorax 5.28127 1.09332 -3.23238
lowerneck -17.7358 -3.4072 1.09359
upperneck 14.1732 -5.1807 1.22616
head 7.26429 -2.32204 -0.361951
rclavicle -8.15017e-015 5.86415e-015
rhumerus 71.5549 -2.86093 -65.3627
rradius 14.6417
rwrist 33.3112
rhand -10.0427 10.1952
rfingers 7.12502
rthumb 15.9425 -19.1686
lclavicle -8.15017e-015 5.86415e-015
lhumerus 76.8277 -7.85479 65.5589
lradius 12.1697
lwrist -40.8016
lhand -19.8159 -9.87831
lfingers 7.12502
lthumb 6.51757 20.0014
rfemur -28.8094 -8.90787 17.5789
rtibia 49.7701
rfoot -22.5643 11.2736
rtoes -19.1406
lfemur -28.364 3.34366 -19.5161
ltibia 50.5356
lfoot -20.6532 -4.6984
ltoes -19.707
142
root 0.834236 18.6348 3.01681 -173.2 0.136974 -179.381
lowerback 1.79863 0.671215 3.70295
upperback 6.1768 1.32895 -1.06292
thorax 5.5 1.05955 -3.12056
lowerneck -17.3839 -3.35502 1.10789
upperneck 14.5214 -5.11556 1.12468
head 7.31543 -2.3026 -0.388574
rclavicle -1.60519e-014 -6.06293e-015
rhumerus 71.2396 -2.41888 -65.0914
rradius 14.6241
rwrist 33.1985
rhand -9.77102 10.1139
rfingers 7.12502
rthumb 16.2041 -19.2289
lclavicle -1.60519e-014 -6.06293e-015
lhumerus 76.2851 -7.85408 65.9051
lradius 12.206
lwrist -41.5633
lhand -19.4922 -9.82707
lfingers 7.12502
lthumb 6.83004 20.0428
rfemur -27.6983 -9.01116 17.6669
rtibia 47.6194
rfoot -21.7896 11.2354
rtoes -18.8859
lfemur -27.0825 3.46668 -19.4675
ltibia 48.1204
lfoot -20.106 -4.82249
ltoes -19.0614
143
root 0.838368 18.7501 2.98169 -173.078 0.182195 -179.351
lowerback 1.25086 0.679397 3.63207
upperback 6.07006 1.29123 -1.02668
thorax 5.69402 1.02555 -3.03643
lowerneck -17.14 -3.30545 1.11114
upperneck 14.9071 -5.06506 1.07321
head 7.39899 -2.28554 -0.401512
rclavicle -4.64659e-015 -2.48481e-015
rhumerus 70.9892 -2.02118 -64.8859
rradius 14.5544
rwrist 33.1384
rhand -9.52785 10.048
rfingers 7.12502
rthumb 16.4383 -19.2756
lclavicle -4.64659e-015 -2.48481e-015
lhumerus 75.81 -7.85023 66.2186
lradius 12.2286
lwrist -42.3636
lhand -19.0328 -9.77672
lfingers 7.12502
lthumb 7.27352 20.0783
rfemur -26.6207 -9.138 17.7512
rtibia 45.5774
rfoot -21.0239 11.2094
rtoes -18.5196
lfemur -25.8566 3.57066 -19.405
ltibia 45.8382
lfoot -19.5411 -5.03136
ltoes -18.0556
144
root 0.842331 18.8552 2.94588 -172.928 0.226729 -179.302
lowerback 0.690992 0.675604 3.55595
upperback 5.95208 1.2361 -0.971042
thorax 5.88171 0.981298 -2.93057
lowerneck -16.954 -3.24216 1.13219
upperneck 15.2973 -4.99339 0.976639
head 7.4923 -2.26158 -0.430875
rclavicle -7.70291e-016 1.98785e-016
rhumerus 70.815 -1.59618 -64.5868
rradius 14.4767
rwrist 33.026
rhand -9.24725 9.98037
rfingers 7.12502
rthumb 16.7084 -19.3206
lclavicle -7.70291e-016 1.98785e-016
lhumerus 75.4391 -7.8082 66.351
lradius 12.1368
lwrist -43.0227
lhand -18.6064 -9.65894
lfingers 7.12502
lthumb 7.68509 20.1814
rfemur -25.6357 -9.30226 17.8576
rtibia 43.6583
rfoot -20.3 11.2187
rtoes -18.2381
lfemur -24.735 3.68095 -19.3202
ltibia 43.6932
lfoot -19.0078 -5.28456
ltoes -17.1512
145
root 0.84735 18.9431 2.91094 -172.826 0.278828 -179.217
lowerback 0.204801 0.675391 3.52641
upperback 5.83458 1.19071 -0.916203
thorax 6.03049 0.944904 -2.85316
lowerneck -16.6065 -3.18824 1.12272
upperneck 15.5508 -4.93282 0.942195
head 7.51532 -2.24275 -0.431587
rclavicle 7.25564e-015 4.96962e-016
rhumerus 70.7007 -1.21628 -64.4165
rradius 14.3342
rwrist 32.9986
rhand -8.98619 9.91875
rfingers 7.12502
rthumb 16.9597 -19.3608
lclavicle 7.25564e-015 4.96962e-016
lhumerus 75.2201 -7.82426 66.1502
lradius 11.9441
lwrist -43.3503
lhand -18.112 -9.45662
lfingers 7.12502
lthumb 8.16229 20.3657
rfemur -24.6828 -9.47938 17.9907
rtibia 41.8774
rfoot -19.6028 11.2744
rtoes -18.0043
lfemur -23.6486 3.81974 -19.1898
ltibia 41.7165
lfoot -18.5098 -5.5434
ltoes -16.2225
